STARTFONT 2.1
FONT -Monotype-Plantin-Bold-I-Normal--14-100-100-100-P-86-iso8859-5
SIZE 10 100 100
FONTBOUNDINGBOX 20 16 -4 -3

STARTPROPERTIES 24
FOUNDRY "Monotype"
FAMILY_NAME "Plantin"
WEIGHT_NAME "Bold"
SLANT "I"
SETWIDTH_NAME "Normal"
ADD_STYLE_NAME ""
PIXEL_SIZE 14
POINT_SIZE 100
RESOLUTION_X 100
RESOLUTION_Y 100
SPACING "P"
AVERAGE_WIDTH 86
CHARSET_REGISTRY "iso8859"
CHARSET_ENCODING "5"
FACE_NAME "Plantin Bold Inclined ISO Latin Cyrillic"
_DEC_DEVICE_FONTNAMES "PS=plantin-bin-latcyrillic"
COPYRIGHT "Copyright (c) 1994 Monotype Typography Ltd."
CAP_HEIGHT 11
X_HEIGHT 7
WEIGHT 10
QUAD_WIDTH 10
DEFAULT_CHAR 160
FONT_DESCENT 4
FONT_ASCENT 13
ENDPROPERTIES

CHARS 191

STARTCHAR space
ENCODING 32
SWIDTH 250 0
DWIDTH 4 0
BBX 0 0 0 0
BITMAP
ENDCHAR

STARTCHAR exclam
ENCODING 33
SWIDTH 365 0
DWIDTH 5 0
BBX 5 10 1 0
BITMAP
18
18
30
30
20
60
40
00
C0
C0
ENDCHAR

STARTCHAR quotedbl
ENCODING 34
SWIDTH 552 0
DWIDTH 8 0
BBX 5 5 2 5
BITMAP
48
D8
D8
90
90
ENDCHAR

STARTCHAR numbersign
ENCODING 35
SWIDTH 500 0
DWIDTH 7 0
BBX 8 10 0 0
BITMAP
12
12
12
7F
24
24
FE
48
48
48
ENDCHAR

STARTCHAR dollar
ENCODING 36
SWIDTH 542 0
DWIDTH 8 0
BBX 7 11 1 -1
BITMAP
08
3C
6A
68
78
3C
2C
2C
AC
78
20
ENDCHAR

STARTCHAR percent
ENCODING 37
SWIDTH 833 0
DWIDTH 12 0
BBX 11 10 1 0
BITMAP
3080
5880
D900
DA00
D2C0
6560
0B60
0B60
1340
2180
ENDCHAR

STARTCHAR ampersand
ENCODING 38
SWIDTH 958 0
DWIDTH 13 0
BBX 13 10 1 0
BITMAP
1E00
3300
3010
1988
63E8
C470
C640
C040
6080
1F00
ENDCHAR

STARTCHAR quoteright
ENCODING 39
SWIDTH 365 0
DWIDTH 5 0
BBX 3 4 1 6
BITMAP
60
60
40
80
ENDCHAR

STARTCHAR parenleft
ENCODING 40
SWIDTH 437 0
DWIDTH 6 0
BBX 7 13 1 -3
BITMAP
06
18
30
60
60
C0
C0
C0
C0
C0
C0
40
20
ENDCHAR

STARTCHAR parenright
ENCODING 41
SWIDTH 437 0
DWIDTH 6 0
BBX 7 13 -1 -3
BITMAP
08
04
06
06
06
06
06
06
0C
0C
18
30
C0
ENDCHAR

STARTCHAR asterisk
ENCODING 42
SWIDTH 510 0
DWIDTH 7 0
BBX 7 7 1 3
BITMAP
10
92
54
38
54
92
10
ENDCHAR

STARTCHAR plus
ENCODING 43
SWIDTH 667 0
DWIDTH 9 0
BBX 7 7 1 1
BITMAP
10
10
10
FE
10
10
10
ENDCHAR

STARTCHAR comma
ENCODING 44
SWIDTH 365 0
DWIDTH 5 0
BBX 3 4 1 -2
BITMAP
60
60
40
80
ENDCHAR

STARTCHAR minus
ENCODING 45
SWIDTH 667 0
DWIDTH 9 0
BBX 8 1 1 4
BITMAP
FF
ENDCHAR

STARTCHAR period
ENCODING 46
SWIDTH 292 0
DWIDTH 4 0
BBX 2 2 1 0
BITMAP
C0
C0
ENDCHAR

STARTCHAR slash
ENCODING 47
SWIDTH 281 0
DWIDTH 4 0
BBX 7 10 -1 0
BITMAP
02
04
0C
08
10
30
20
40
C0
80
ENDCHAR

STARTCHAR zero
ENCODING 48
SWIDTH 542 0
DWIDTH 8 0
BBX 7 10 1 0
BITMAP
1C
36
66
66
66
CC
CC
CC
D8
70
ENDCHAR

STARTCHAR one
ENCODING 49
SWIDTH 542 0
DWIDTH 8 0
BBX 5 10 2 0
BITMAP
08
38
18
18
30
30
30
60
60
F0
ENDCHAR

STARTCHAR two
ENCODING 50
SWIDTH 542 0
DWIDTH 8 0
BBX 8 10 0 0
BITMAP
1E
23
03
03
06
04
08
12
7E
FC
ENDCHAR

STARTCHAR three
ENCODING 51
SWIDTH 542 0
DWIDTH 8 0
BBX 8 10 0 0
BITMAP
0E
13
03
03
1E
06
06
06
8C
78
ENDCHAR

STARTCHAR four
ENCODING 52
SWIDTH 542 0
DWIDTH 8 0
BBX 8 10 0 0
BITMAP
02
06
0E
16
2C
4C
FF
FE
18
18
ENDCHAR

STARTCHAR five
ENCODING 53
SWIDTH 542 0
DWIDTH 8 0
BBX 7 10 1 0
BITMAP
1E
3C
20
78
1C
0C
0C
0C
98
70
ENDCHAR

STARTCHAR six
ENCODING 54
SWIDTH 542 0
DWIDTH 8 0
BBX 8 10 0 0
BITMAP
0F
30
60
C0
DC
E6
C6
C6
CC
78
ENDCHAR

STARTCHAR seven
ENCODING 55
SWIDTH 542 0
DWIDTH 8 0
BBX 7 10 1 0
BITMAP
7E
FE
86
04
0C
08
18
10
30
20
ENDCHAR

STARTCHAR eight
ENCODING 56
SWIDTH 542 0
DWIDTH 8 0
BBX 7 10 1 0
BITMAP
1C
22
62
74
38
5C
8C
8C
88
70
ENDCHAR

STARTCHAR nine
ENCODING 57
SWIDTH 542 0
DWIDTH 8 0
BBX 8 10 0 0
BITMAP
1E
33
63
63
67
3B
03
06
0C
F0
ENDCHAR

STARTCHAR colon
ENCODING 58
SWIDTH 365 0
DWIDTH 5 0
BBX 3 6 1 0
BITMAP
60
60
00
00
C0
C0
ENDCHAR

STARTCHAR semicolon
ENCODING 59
SWIDTH 365 0
DWIDTH 5 0
BBX 4 8 0 -2
BITMAP
30
30
00
00
60
60
40
80
ENDCHAR

STARTCHAR less
ENCODING 60
SWIDTH 667 0
DWIDTH 9 0
BBX 7 7 1 1
BITMAP
02
0E
38
E0
38
0E
02
ENDCHAR

STARTCHAR equal
ENCODING 61
SWIDTH 667 0
DWIDTH 9 0
BBX 7 3 1 3
BITMAP
FE
00
FE
ENDCHAR

STARTCHAR greater
ENCODING 62
SWIDTH 667 0
DWIDTH 9 0
BBX 7 7 1 1
BITMAP
80
E0
38
0E
38
E0
80
ENDCHAR

STARTCHAR question
ENCODING 63
SWIDTH 510 0
DWIDTH 7 0
BBX 6 10 1 0
BITMAP
38
6C
0C
0C
78
70
40
00
C0
C0
ENDCHAR

STARTCHAR at
ENCODING 64
SWIDTH 833 0
DWIDTH 12 0
BBX 12 13 0 -3
BITMAP
0F00
30C0
4020
42A0
8790
8990
9910
9B10
9F60
5990
4020
30C0
0F00
ENDCHAR

STARTCHAR A
ENCODING 65
SWIDTH 708 0
DWIDTH 10 0
BBX 11 10 -1 0
BITMAP
0040
00C0
01C0
02C0
04C0
08C0
1FC0
20C0
40C0
E1E0
ENDCHAR

STARTCHAR B
ENCODING 66
SWIDTH 750 0
DWIDTH 10 0
BBX 10 10 0 0
BITMAP
3F80
18C0
18C0
3180
3F00
3380
3180
6180
6300
FC00
ENDCHAR

STARTCHAR C
ENCODING 67
SWIDTH 750 0
DWIDTH 11 0
BBX 10 10 1 0
BITMAP
0F80
38C0
7040
6000
E000
C000
C000
C080
6180
3F00
ENDCHAR

STARTCHAR D
ENCODING 68
SWIDTH 802 0
DWIDTH 11 0
BBX 10 10 0 0
BITMAP
3F00
1980
18C0
30C0
30C0
30C0
30C0
6180
6300
FC00
ENDCHAR

STARTCHAR E
ENCODING 69
SWIDTH 740 0
DWIDTH 10 0
BBX 11 10 0 0
BITMAP
3FE0
1860
1840
3100
3E00
3200
3000
6080
6180
FF00
ENDCHAR

STARTCHAR F
ENCODING 70
SWIDTH 667 0
DWIDTH 9 0
BBX 10 10 0 0
BITMAP
3FC0
18C0
1880
3200
3E00
3200
3000
6000
6000
F000
ENDCHAR

STARTCHAR G
ENCODING 71
SWIDTH 833 0
DWIDTH 12 0
BBX 11 10 1 0
BITMAP
0FC0
3860
7020
6000
E000
C3C0
C180
C180
6380
3F00
ENDCHAR

STARTCHAR H
ENCODING 72
SWIDTH 844 0
DWIDTH 12 0
BBX 12 10 0 0
BITMAP
3CF0
1860
1860
30C0
3FC0
30C0
30C0
6180
6180
F3C0
ENDCHAR

STARTCHAR I
ENCODING 73
SWIDTH 417 0
DWIDTH 6 0
BBX 6 10 0 0
BITMAP
3C
18
18
30
30
30
30
60
60
F0
ENDCHAR

STARTCHAR J
ENCODING 74
SWIDTH 396 0
DWIDTH 6 0
BBX 10 13 -4 -3
BITMAP
03C0
0180
0180
0180
0300
0300
0300
0600
0600
0600
8C00
C800
7000
ENDCHAR

STARTCHAR K
ENCODING 75
SWIDTH 740 0
DWIDTH 10 0
BBX 12 10 0 0
BITMAP
3CF0
1840
1880
3100
3E00
3600
3300
6380
61C0
F0E0
ENDCHAR

STARTCHAR L
ENCODING 76
SWIDTH 667 0
DWIDTH 9 0
BBX 9 10 0 0
BITMAP
3C00
1800
1800
3000
3000
3000
3000
6080
6180
FF00
ENDCHAR

STARTCHAR M
ENCODING 77
SWIDTH 979 0
DWIDTH 14 0
BBX 14 10 0 0
BITMAP
3C3C
1C38
1C78
1C58
2CB0
2CB0
2D30
4E60
4E60
ECF0
ENDCHAR

STARTCHAR N
ENCODING 78
SWIDTH 812 0
DWIDTH 11 0
BBX 12 10 0 0
BITMAP
3870
1820
1C20
1C20
2E40
2640
2740
4380
4380
E180
ENDCHAR

STARTCHAR O
ENCODING 79
SWIDTH 854 0
DWIDTH 12 0
BBX 10 10 1 0
BITMAP
0F00
3880
70C0
60C0
E0C0
C1C0
C180
C380
4700
3C00
ENDCHAR

STARTCHAR P
ENCODING 80
SWIDTH 677 0
DWIDTH 9 0
BBX 10 10 0 0
BITMAP
3F80
18C0
18C0
30C0
3080
3700
3000
6000
6000
F000
ENDCHAR

STARTCHAR Q
ENCODING 81
SWIDTH 854 0
DWIDTH 12 0
BBX 10 13 1 -3
BITMAP
0F00
3880
70C0
60C0
E0C0
C1C0
C180
C380
4700
3C00
3000
1980
0F00
ENDCHAR

STARTCHAR R
ENCODING 82
SWIDTH 781 0
DWIDTH 11 0
BBX 11 10 0 0
BITMAP
3FC0
18E0
1860
30C0
3F80
3300
3300
6180
6180
F3C0
ENDCHAR

STARTCHAR S
ENCODING 83
SWIDTH 625 0
DWIDTH 9 0
BBX 8 10 1 0
BITMAP
3E
63
61
70
38
1C
0E
86
C6
7C
ENDCHAR

STARTCHAR T
ENCODING 84
SWIDTH 729 0
DWIDTH 10 0
BBX 10 10 1 0
BITMAP
7FC0
8C80
0C00
1800
1800
1800
1800
3000
3000
7800
ENDCHAR

STARTCHAR U
ENCODING 85
SWIDTH 792 0
DWIDTH 11 0
BBX 11 10 1 0
BITMAP
78E0
3040
3040
6080
6080
6080
C100
C100
C200
7C00
ENDCHAR

STARTCHAR V
ENCODING 86
SWIDTH 719 0
DWIDTH 10 0
BBX 11 10 1 0
BITMAP
F1E0
60C0
6080
6100
6200
6400
6800
7000
6000
4000
ENDCHAR

STARTCHAR W
ENCODING 87
SWIDTH 969 0
DWIDTH 14 0
BBX 14 10 1 0
BITMAP
F79C
6308
6710
6710
6B20
6B40
7340
7380
6300
4200
ENDCHAR

STARTCHAR X
ENCODING 88
SWIDTH 771 0
DWIDTH 11 0
BBX 12 10 -1 0
BITMAP
3EF0
1C40
0C80
0F00
0600
0700
0B00
1180
21C0
F3E0
ENDCHAR

STARTCHAR Y
ENCODING 89
SWIDTH 677 0
DWIDTH 9 0
BBX 9 10 1 0
BITMAP
F380
6100
6200
3200
3400
1C00
1800
3000
3000
7800
ENDCHAR

STARTCHAR Z
ENCODING 90
SWIDTH 687 0
DWIDTH 10 0
BBX 10 10 0 0
BITMAP
3FC0
61C0
4380
0700
0600
0C00
1C00
3880
7180
FF00
ENDCHAR

STARTCHAR bracketleft
ENCODING 91
SWIDTH 385 0
DWIDTH 5 0
BBX 6 13 0 -3
BITMAP
1C
18
18
30
30
30
60
60
60
60
C0
C0
E0
ENDCHAR

STARTCHAR backslash
ENCODING 92
SWIDTH 281 0
DWIDTH 4 0
BBX 3 10 1 0
BITMAP
80
80
C0
C0
40
40
60
60
20
20
ENDCHAR

STARTCHAR bracketright
ENCODING 93
SWIDTH 385 0
DWIDTH 5 0
BBX 6 13 0 -3
BITMAP
1C
0C
0C
18
18
18
18
30
30
30
60
60
E0
ENDCHAR

STARTCHAR asciicircum
ENCODING 94
SWIDTH 573 0
DWIDTH 8 0
BBX 6 4 1 6
BITMAP
30
30
48
CC
ENDCHAR

STARTCHAR underscore
ENCODING 95
SWIDTH 500 0
DWIDTH 7 0
BBX 7 1 0 -3
BITMAP
FE
ENDCHAR

STARTCHAR quoteleft
ENCODING 96
SWIDTH 365 0
DWIDTH 5 0
BBX 3 4 1 6
BITMAP
20
40
C0
C0
ENDCHAR

STARTCHAR a
ENCODING 97
SWIDTH 594 0
DWIDTH 8 0
BBX 7 7 1 0
BITMAP
1A
66
C6
CC
CC
DC
6E
ENDCHAR

STARTCHAR b
ENCODING 98
SWIDTH 615 0
DWIDTH 9 0
BBX 8 10 1 0
BITMAP
10
70
30
6E
73
63
C3
C7
C6
78
ENDCHAR

STARTCHAR c
ENCODING 99
SWIDTH 500 0
DWIDTH 7 0
BBX 6 7 1 0
BITMAP
3C
64
C0
C0
C0
C8
70
ENDCHAR

STARTCHAR d
ENCODING 100
SWIDTH 625 0
DWIDTH 9 0
BBX 9 10 0 0
BITMAP
0080
0380
0180
1B00
2700
6300
C300
C600
CE80
7700
ENDCHAR

STARTCHAR e
ENCODING 101
SWIDTH 510 0
DWIDTH 7 0
BBX 6 7 1 0
BITMAP
38
4C
CC
F8
C0
C8
70
ENDCHAR

STARTCHAR f
ENCODING 102
SWIDTH 333 0
DWIDTH 5 0
BBX 9 13 -2 -3
BITMAP
0380
0680
0C00
1E00
0C00
0C00
1800
1800
1800
1800
3000
B000
E000
ENDCHAR

STARTCHAR g
ENCODING 103
SWIDTH 594 0
DWIDTH 8 0
BBX 9 10 -1 -3
BITMAP
0D80
1B00
3300
3300
1E00
3000
3C00
6600
C600
7800
ENDCHAR

STARTCHAR h
ENCODING 104
SWIDTH 625 0
DWIDTH 9 0
BBX 8 10 1 0
BITMAP
10
70
30
6C
76
66
66
CC
CD
C6
ENDCHAR

STARTCHAR i
ENCODING 105
SWIDTH 333 0
DWIDTH 5 0
BBX 5 10 0 0
BITMAP
18
18
00
60
B0
30
30
60
68
30
ENDCHAR

STARTCHAR j
ENCODING 106
SWIDTH 323 0
DWIDTH 5 0
BBX 7 13 -2 -3
BITMAP
06
06
00
18
2C
0C
0C
0C
18
18
18
B0
E0
ENDCHAR

STARTCHAR k
ENCODING 107
SWIDTH 625 0
DWIDTH 9 0
BBX 8 10 1 0
BITMAP
10
70
30
6E
73
63
76
6C
CD
C6
ENDCHAR

STARTCHAR l
ENCODING 108
SWIDTH 302 0
DWIDTH 4 0
BBX 4 10 0 0
BITMAP
10
70
30
60
60
60
60
C0
D0
60
ENDCHAR

STARTCHAR m
ENCODING 109
SWIDTH 1000 0
DWIDTH 14 0
BBX 13 7 1 0
BITMAP
7660
BBB0
3330
3330
6660
6668
6630
ENDCHAR

STARTCHAR n
ENCODING 110
SWIDTH 635 0
DWIDTH 9 0
BBX 9 7 0 0
BITMAP
7600
BB00
3300
3300
6600
6680
6300
ENDCHAR

STARTCHAR o
ENCODING 111
SWIDTH 573 0
DWIDTH 8 0
BBX 7 7 1 0
BITMAP
3C
66
C6
C6
C6
CC
78
ENDCHAR

STARTCHAR p
ENCODING 112
SWIDTH 615 0
DWIDTH 9 0
BBX 9 11 0 -3
BITMAP
0800
3F00
5980
1980
1980
3180
3300
3E00
6000
6000
F000
ENDCHAR

STARTCHAR q
ENCODING 113
SWIDTH 594 0
DWIDTH 8 0
BBX 8 10 0 -3
BITMAP
1B
66
C6
C6
CC
CC
7C
18
18
3C
ENDCHAR

STARTCHAR r
ENCODING 114
SWIDTH 479 0
DWIDTH 7 0
BBX 7 7 0 0
BITMAP
76
BA
30
30
60
60
60
ENDCHAR

STARTCHAR s
ENCODING 115
SWIDTH 490 0
DWIDTH 7 0
BBX 7 7 0 0
BITMAP
3C
66
70
38
1C
CC
78
ENDCHAR

STARTCHAR t
ENCODING 116
SWIDTH 365 0
DWIDTH 5 0
BBX 5 9 1 0
BITMAP
10
30
78
30
60
60
C0
D0
60
ENDCHAR

STARTCHAR u
ENCODING 117
SWIDTH 635 0
DWIDTH 9 0
BBX 9 7 0 0
BITMAP
7300
B300
3300
6600
6600
6E80
3300
ENDCHAR

STARTCHAR v
ENCODING 118
SWIDTH 573 0
DWIDTH 8 0
BBX 7 7 1 0
BITMAP
74
B6
32
62
62
64
38
ENDCHAR

STARTCHAR w
ENCODING 119
SWIDTH 854 0
DWIDTH 12 0
BBX 11 7 1 0
BITMAP
7640
B260
3220
6220
6420
6640
3980
ENDCHAR

STARTCHAR x
ENCODING 120
SWIDTH 615 0
DWIDTH 9 0
BBX 8 7 1 0
BITMAP
33
5D
18
18
30
BA
CC
ENDCHAR

STARTCHAR y
ENCODING 121
SWIDTH 552 0
DWIDTH 8 0
BBX 9 10 -1 -3
BITMAP
1D00
2D80
0C80
0D80
0D00
0700
0600
0C00
D800
6000
ENDCHAR

STARTCHAR z
ENCODING 122
SWIDTH 500 0
DWIDTH 7 0
BBX 7 7 0 0
BITMAP
3A
4C
18
18
30
64
B8
ENDCHAR

STARTCHAR braceleft
ENCODING 123
SWIDTH 396 0
DWIDTH 6 0
BBX 6 13 1 -3
BITMAP
0C
18
10
30
30
20
C0
60
60
40
C0
C0
60
ENDCHAR

STARTCHAR bar
ENCODING 124
SWIDTH 219 0
DWIDTH 3 0
BBX 1 13 1 -3
BITMAP
80
80
80
80
80
80
80
80
80
80
80
80
80
ENDCHAR

STARTCHAR braceright
ENCODING 125
SWIDTH 396 0
DWIDTH 6 0
BBX 6 13 0 -3
BITMAP
18
0C
0C
08
18
18
0C
10
30
30
20
60
C0
ENDCHAR

STARTCHAR asciitilde
ENCODING 126
SWIDTH 573 0
DWIDTH 8 0
BBX 6 2 1 4
BITMAP
74
B8
ENDCHAR

STARTCHAR space
ENCODING 160
SWIDTH 250 0
DWIDTH 4 0
BBX 0 0 0 0
BITMAP
ENDCHAR

STARTCHAR afii10023
ENCODING 161
SWIDTH 740 0
DWIDTH 10 0
BBX 11 13 0 0
BITMAP
0CC0
0CC0
0000
3FE0
1860
1840
3100
3E00
3200
3000
6080
6180
FF00
ENDCHAR

STARTCHAR afii10051
ENCODING 162
SWIDTH 865 0
DWIDTH 12 0
BBX 10 10 1 0
BITMAP
7F80
CCC0
0C00
1B80
1CC0
18C0
18C0
30C0
3280
7B00
ENDCHAR

STARTCHAR afii10052
ENCODING 163
SWIDTH 656 0
DWIDTH 9 0
BBX 10 13 0 0
BITMAP
0180
0300
0000
3F80
18C0
1800
3000
3000
3000
3000
6000
6000
F000
ENDCHAR

STARTCHAR afii10053
ENCODING 164
SWIDTH 771 0
DWIDTH 11 0
BBX 11 10 1 0
BITMAP
0FC0
3860
6020
6000
FF00
C000
C000
C080
6180
3F00
ENDCHAR

STARTCHAR afii10054
ENCODING 165
SWIDTH 625 0
DWIDTH 9 0
BBX 8 10 1 0
BITMAP
3E
63
61
70
38
1C
0E
86
C6
7C
ENDCHAR

STARTCHAR afii10055
ENCODING 166
SWIDTH 417 0
DWIDTH 6 0
BBX 6 10 0 0
BITMAP
3C
18
18
30
30
30
30
60
60
F0
ENDCHAR

STARTCHAR afii10056
ENCODING 167
SWIDTH 417 0
DWIDTH 6 0
BBX 8 13 0 0
BITMAP
33
33
00
3C
18
18
30
30
30
30
60
60
F0
ENDCHAR

STARTCHAR afii10057
ENCODING 168
SWIDTH 396 0
DWIDTH 6 0
BBX 10 13 -4 -3
BITMAP
03C0
0180
0180
0180
0300
0300
0300
0600
0600
0600
8C00
C800
7000
ENDCHAR

STARTCHAR afii10058
ENCODING 169
SWIDTH 1099 0
DWIDTH 15 0
BBX 15 10 -1 0
BITMAP
07F0
0260
0260
04C0
04FC
04CE
08C6
0986
D18C
63F0
ENDCHAR

STARTCHAR afii10059
ENCODING 170
SWIDTH 1125 0
DWIDTH 16 0
BBX 15 10 0 0
BITMAP
3CF0
1860
1860
30C0
3FFC
30CE
30C6
6186
618C
F3F0
ENDCHAR

STARTCHAR afii10060
ENCODING 171
SWIDTH 906 0
DWIDTH 12 0
BBX 11 10 0 0
BITMAP
7FC0
CC60
0C00
1BC0
1C60
1860
1860
30C0
30C0
79E0
ENDCHAR

STARTCHAR afii10061
ENCODING 172
SWIDTH 723 0
DWIDTH 10 0
BBX 12 13 0 0
BITMAP
0180
0300
0000
3C60
18B0
1880
3100
3E00
3300
3300
6180
6180
F1C0
ENDCHAR

STARTCHAR hyphen
ENCODING 173
SWIDTH 458 0
DWIDTH 6 0
BBX 5 1 1 3
BITMAP
F8
ENDCHAR

STARTCHAR afii10062
ENCODING 174
SWIDTH 719 0
DWIDTH 9 0
BBX 10 13 0 0
BITMAP
1100
0E00
0000
79C0
3080
3080
1900
1900
1A00
0A00
0C00
C800
7000
ENDCHAR

STARTCHAR afii10145
ENCODING 175
SWIDTH 844 0
DWIDTH 12 0
BBX 12 12 0 -2
BITMAP
3CF0
1860
1860
30C0
30C0
30C0
30C0
6180
6180
FFC0
0C00
0C00
ENDCHAR

STARTCHAR afii10017
ENCODING 176
SWIDTH 708 0
DWIDTH 10 0
BBX 11 10 -1 0
BITMAP
0040
00C0
01C0
02C0
04C0
08C0
1FC0
20C0
40C0
E1E0
ENDCHAR

STARTCHAR afii10018
ENCODING 177
SWIDTH 729 0
DWIDTH 10 0
BBX 10 10 0 0
BITMAP
3F80
18C0
1800
3000
3F00
3380
3180
6180
6300
FC00
ENDCHAR

STARTCHAR afii10019
ENCODING 178
SWIDTH 750 0
DWIDTH 10 0
BBX 10 10 0 0
BITMAP
3F80
18C0
18C0
3180
3F00
3380
3180
6180
6300
FC00
ENDCHAR

STARTCHAR afii10020
ENCODING 179
SWIDTH 633 0
DWIDTH 9 0
BBX 10 10 0 0
BITMAP
3F80
18C0
1800
3000
3000
3000
3000
6000
6000
F000
ENDCHAR

STARTCHAR afii10021
ENCODING 180
SWIDTH 719 0
DWIDTH 11 0
BBX 12 12 -1 -2
BITMAP
1FF0
0860
0860
08C0
10C0
10C0
10C0
2180
2180
FFC0
C0C0
8040
ENDCHAR

STARTCHAR afii10022
ENCODING 181
SWIDTH 740 0
DWIDTH 10 0
BBX 11 10 0 0
BITMAP
3FE0
1860
1840
3100
3E00
3200
3000
6080
6180
FF00
ENDCHAR

STARTCHAR afii10024
ENCODING 182
SWIDTH 915 0
DWIDTH 15 0
BBX 17 10 -1 0
BITMAP
18F300
346580
04C800
06D000
07F000
0CB000
19B800
399800
731C00
E78E00
ENDCHAR

STARTCHAR afii10025
ENCODING 183
SWIDTH 656 0
DWIDTH 9 0
BBX 9 10 0 0
BITMAP
0F00
1180
2180
0300
1E00
0300
0300
8300
C600
3800
ENDCHAR

STARTCHAR afii10026
ENCODING 184
SWIDTH 844 0
DWIDTH 12 0
BBX 12 10 0 0
BITMAP
3CF0
1860
18E0
1960
32C0
34C0
38C0
7180
6180
F3C0
ENDCHAR

STARTCHAR afii10027
ENCODING 185
SWIDTH 844 0
DWIDTH 12 0
BBX 12 13 0 0
BITMAP
0440
0380
0000
3CF0
1860
18E0
1960
32C0
34C0
38C0
7180
6180
F3C0
ENDCHAR

STARTCHAR afii10028
ENCODING 186
SWIDTH 723 0
DWIDTH 10 0
BBX 12 10 0 0
BITMAP
3C60
18B0
1880
3100
3E00
3300
3300
6180
6180
F1C0
ENDCHAR

STARTCHAR afii10029
ENCODING 187
SWIDTH 835 0
DWIDTH 12 0
BBX 13 10 0 0
BITMAP
07F8
0230
0230
0460
0460
0460
0860
08C0
D0C0
61E0
ENDCHAR

STARTCHAR afii10030
ENCODING 188
SWIDTH 979 0
DWIDTH 14 0
BBX 14 10 0 0
BITMAP
3C3C
1C38
1C78
1C58
2CB0
2CB0
2D30
4E60
4E60
ECF0
ENDCHAR

STARTCHAR afii10031
ENCODING 189
SWIDTH 844 0
DWIDTH 12 0
BBX 12 10 0 0
BITMAP
3CF0
1860
1860
30C0
3FC0
30C0
30C0
6180
6180
F3C0
ENDCHAR

STARTCHAR afii10032
ENCODING 190
SWIDTH 854 0
DWIDTH 12 0
BBX 10 10 1 0
BITMAP
0F00
3880
70C0
60C0
E0C0
C1C0
C180
C380
4700
3C00
ENDCHAR

STARTCHAR afii10033
ENCODING 191
SWIDTH 854 0
DWIDTH 12 0
BBX 12 10 0 0
BITMAP
3FF0
1860
1860
30C0
30C0
30C0
30C0
6180
6180
F3C0
ENDCHAR

STARTCHAR afii10034
ENCODING 192
SWIDTH 677 0
DWIDTH 9 0
BBX 10 10 0 0
BITMAP
3F80
18C0
18C0
30C0
3080
3700
3000
6000
6000
F000
ENDCHAR

STARTCHAR afii10035
ENCODING 193
SWIDTH 750 0
DWIDTH 11 0
BBX 10 10 1 0
BITMAP
0F80
38C0
7040
6000
E000
C000
C000
C080
6180
3F00
ENDCHAR

STARTCHAR afii10036
ENCODING 194
SWIDTH 729 0
DWIDTH 10 0
BBX 10 10 1 0
BITMAP
7FC0
8C80
0C00
1800
1800
1800
1800
3000
3000
7800
ENDCHAR

STARTCHAR afii10037
ENCODING 195
SWIDTH 719 0
DWIDTH 9 0
BBX 10 10 0 0
BITMAP
79C0
3080
3080
1900
1900
1A00
0A00
0C00
C800
7000
ENDCHAR

STARTCHAR afii10038
ENCODING 196
SWIDTH 1021 0
DWIDTH 15 0
BBX 13 10 1 0
BITMAP
03C0
0180
1FF0
6318
C318
C618
C630
7FC0
0C00
1E00
ENDCHAR

STARTCHAR afii10039
ENCODING 197
SWIDTH 771 0
DWIDTH 11 0
BBX 12 10 -1 0
BITMAP
3EF0
1C40
0C80
0F00
0600
0700
0B00
1180
21C0
F3E0
ENDCHAR

STARTCHAR afii10040
ENCODING 198
SWIDTH 844 0
DWIDTH 12 0
BBX 12 12 0 -2
BITMAP
3CF0
1860
1860
30C0
30C0
30C0
30C0
6180
6180
FFC0
00C0
0040
ENDCHAR

STARTCHAR afii10041
ENCODING 199
SWIDTH 802 0
DWIDTH 11 0
BBX 10 10 1 0
BITMAP
F3C0
6180
6180
C180
C300
C700
7B00
0600
0600
0F00
ENDCHAR

STARTCHAR afii10042
ENCODING 200
SWIDTH 1083 0
DWIDTH 15 0
BBX 16 10 0 0
BITMAP
3DEF
18C6
18C6
318C
318C
318C
318C
6318
6318
FFFC
ENDCHAR

STARTCHAR afii10043
ENCODING 201
SWIDTH 1083 0
DWIDTH 15 0
BBX 16 12 0 -2
BITMAP
3DEF
18C6
18C6
318C
318C
318C
318C
6318
6318
FFFC
000C
0004
ENDCHAR

STARTCHAR afii10044
ENCODING 202
SWIDTH 823 0
DWIDTH 11 0
BBX 10 10 0 0
BITMAP
7E00
CC00
0C00
1800
1F80
19C0
18C0
30C0
3180
7E00
ENDCHAR

STARTCHAR afii10045
ENCODING 203
SWIDTH 1050 0
DWIDTH 15 0
BBX 15 10 0 0
BITMAP
3C1E
180C
180C
3018
3F18
3398
3198
61B0
6330
FC78
ENDCHAR

STARTCHAR afii10046
ENCODING 204
SWIDTH 719 0
DWIDTH 10 0
BBX 9 10 0 0
BITMAP
3C00
1800
1800
3000
3F00
3380
3180
6180
6300
FC00
ENDCHAR

STARTCHAR afii10047
ENCODING 205
SWIDTH 777 0
DWIDTH 11 0
BBX 11 10 0 0
BITMAP
1F80
30C0
2060
0060
0060
1FE0
00C0
80C0
C380
7E00
ENDCHAR

STARTCHAR afii10048
ENCODING 206
SWIDTH 1250 0
DWIDTH 17 0
BBX 16 10 0 0
BITMAP
3C3C
18E2
19C3
3183
3F83
3307
3306
630E
611C
F0F0
ENDCHAR

STARTCHAR afii10049
ENCODING 207
SWIDTH 792 0
DWIDTH 11 0
BBX 12 10 -1 0
BITMAP
07F0
0C60
1860
18C0
0FC0
0CC0
18C0
3180
6180
E3C0
ENDCHAR

STARTCHAR afii10065
ENCODING 208
SWIDTH 585 0
DWIDTH 8 0
BBX 7 7 1 0
BITMAP
1A
66
C6
CC
CC
DC
6E
ENDCHAR

STARTCHAR afii10066
ENCODING 209
SWIDTH 573 0
DWIDTH 8 0
BBX 8 10 1 0
BITMAP
01
0E
38
40
DC
E6
C6
C6
CC
78
ENDCHAR

STARTCHAR afii10067
ENCODING 210
SWIDTH 514 0
DWIDTH 7 0
BBX 6 7 1 0
BITMAP
3C
6C
CC
F8
CC
CC
78
ENDCHAR

STARTCHAR afii10068
ENCODING 211
SWIDTH 378 0
DWIDTH 5 0
BBX 4 7 1 0
BITMAP
60
B0
30
60
C0
D0
60
ENDCHAR

STARTCHAR afii10069
ENCODING 212
SWIDTH 568 0
DWIDTH 8 0
BBX 7 10 1 0
BITMAP
10
08
0C
06
3E
66
C6
C6
CC
78
ENDCHAR

STARTCHAR afii10070
ENCODING 213
SWIDTH 517 0
DWIDTH 7 0
BBX 6 7 1 0
BITMAP
38
4C
CC
F8
C0
C8
70
ENDCHAR

STARTCHAR afii10072
ENCODING 214
SWIDTH 1083 0
DWIDTH 15 0
BBX 16 7 0 0
BITMAP
38CE
6CDB
0DB0
0FF0
0DB0
DB36
731C
ENDCHAR

STARTCHAR afii10073
ENCODING 215
SWIDTH 407 0
DWIDTH 6 0
BBX 6 7 0 0
BITMAP
38
4C
18
30
18
98
70
ENDCHAR

STARTCHAR afii10074
ENCODING 216
SWIDTH 635 0
DWIDTH 9 0
BBX 9 7 0 0
BITMAP
7300
B300
3300
6600
6600
6E80
3300
ENDCHAR

STARTCHAR afii10075
ENCODING 217
SWIDTH 635 0
DWIDTH 9 0
BBX 9 10 0 0
BITMAP
1100
0E00
0000
7300
B300
3300
6600
6600
6E80
3300
ENDCHAR

STARTCHAR afii10076
ENCODING 218
SWIDTH 563 0
DWIDTH 8 0
BBX 8 7 0 0
BITMAP
73
35
34
38
6C
6C
C6
ENDCHAR

STARTCHAR afii10077
ENCODING 219
SWIDTH 594 0
DWIDTH 8 0
BBX 9 7 -1 0
BITMAP
0700
0B00
1300
1300
2600
2680
C700
ENDCHAR

STARTCHAR afii10078
ENCODING 220
SWIDTH 729 0
DWIDTH 10 0
BBX 10 7 0 0
BITMAP
1980
1980
3300
3300
7700
5B40
D380
ENDCHAR

STARTCHAR afii10079
ENCODING 221
SWIDTH 635 0
DWIDTH 9 0
BBX 8 7 1 0
BITMAP
E6
66
66
7E
CC
CD
CE
ENDCHAR

STARTCHAR afii10080
ENCODING 222
SWIDTH 573 0
DWIDTH 8 0
BBX 7 7 1 0
BITMAP
3C
66
C6
C6
C6
CC
78
ENDCHAR

STARTCHAR afii10081
ENCODING 223
SWIDTH 635 0
DWIDTH 9 0
BBX 9 7 0 0
BITMAP
7600
BB00
3300
3300
6600
6680
6300
ENDCHAR

STARTCHAR afii10082
ENCODING 224
SWIDTH 612 0
DWIDTH 9 0
BBX 9 11 0 -3
BITMAP
0800
3F00
5980
1980
1980
3180
3300
3E00
6000
6000
F000
ENDCHAR

STARTCHAR afii10083
ENCODING 225
SWIDTH 506 0
DWIDTH 7 0
BBX 6 7 1 0
BITMAP
3C
64
C0
C0
C0
C8
70
ENDCHAR

STARTCHAR afii10084
ENCODING 226
SWIDTH 1000 0
DWIDTH 14 0
BBX 13 7 1 0
BITMAP
7660
BBB0
3330
3330
6660
6668
6630
ENDCHAR

STARTCHAR afii10085
ENCODING 227
SWIDTH 552 0
DWIDTH 8 0
BBX 9 10 -1 -3
BITMAP
1D00
2D80
0C80
0D80
0D00
0700
0600
0C00
D800
6000
ENDCHAR

STARTCHAR afii10086
ENCODING 228
SWIDTH 781 0
DWIDTH 11 0
BBX 10 13 1 -3
BITMAP
01C0
0280
0600
3580
5EC0
CCC0
CCC0
CCC0
6D80
3B00
1800
5000
E000
ENDCHAR

STARTCHAR afii10087
ENCODING 229
SWIDTH 615 0
DWIDTH 9 0
BBX 8 7 1 0
BITMAP
33
5D
18
18
30
BA
CC
ENDCHAR

STARTCHAR afii10088
ENCODING 230
SWIDTH 625 0
DWIDTH 9 0
BBX 9 9 0 -2
BITMAP
7300
B300
3300
6600
6600
6E80
3300
0300
0600
ENDCHAR

STARTCHAR afii10089
ENCODING 231
SWIDTH 615 0
DWIDTH 9 0
BBX 9 7 0 0
BITMAP
7300
B300
3300
3600
1E00
0680
0300
ENDCHAR

STARTCHAR afii10090
ENCODING 232
SWIDTH 1000 0
DWIDTH 12 0
BBX 11 7 1 0
BITMAP
7640
B260
3220
6220
6420
6640
3980
ENDCHAR

STARTCHAR afii10091
ENCODING 233
SWIDTH 1000 0
DWIDTH 12 0
BBX 11 9 1 -2
BITMAP
7640
B260
3220
6220
6420
6640
3980
0180
0300
ENDCHAR

STARTCHAR afii10092
ENCODING 234
SWIDTH 521 0
DWIDTH 7 0
BBX 8 7 -1 0
BITMAP
78
98
18
3E
33
33
1E
ENDCHAR

STARTCHAR afii10093
ENCODING 235
SWIDTH 781 0
DWIDTH 11 0
BBX 10 7 1 0
BITMAP
E380
6180
6180
7980
CF00
CF40
7180
ENDCHAR

STARTCHAR afii10094
ENCODING 236
SWIDTH 510 0
DWIDTH 7 0
BBX 6 7 1 0
BITMAP
E0
60
60
78
CC
CC
78
ENDCHAR

STARTCHAR afii10095
ENCODING 237
SWIDTH 483 0
DWIDTH 7 0
BBX 6 7 0 0
BITMAP
38
4C
0C
1C
0C
D8
70
ENDCHAR

STARTCHAR afii10096
ENCODING 238
SWIDTH 867 0
DWIDTH 12 0
BBX 11 7 1 0
BITMAP
E3C0
6660
6C60
7C60
CC60
CCC0
C780
ENDCHAR

STARTCHAR afii10097
ENCODING 239
SWIDTH 603 0
DWIDTH 8 0
BBX 9 7 0 0
BITMAP
1F80
3300
3300
1E00
3600
B680
6700
ENDCHAR

STARTCHAR afii61352
ENCODING 240
SWIDTH 1135 0
DWIDTH 16 0
BBX 15 10 0 0
BITMAP
1818
0C2C
0C40
0E4C
0E56
13B6
13B4
1198
D100
613E
ENDCHAR

STARTCHAR afii10071
ENCODING 241
SWIDTH 517 0
DWIDTH 7 0
BBX 7 10 1 0
BITMAP
66
66
00
38
4C
CC
F8
C0
C8
70
ENDCHAR

STARTCHAR afii10099
ENCODING 242
SWIDTH 631 0
DWIDTH 9 0
BBX 7 13 1 -3
BITMAP
10
7E
30
60
6C
76
66
C6
CC
CC
0C
0C
18
ENDCHAR

STARTCHAR afii10100
ENCODING 243
SWIDTH 512 0
DWIDTH 7 0
BBX 8 10 0 0
BITMAP
0C
18
00
7E
33
30
30
60
60
F0
ENDCHAR

STARTCHAR afii10101
ENCODING 244
SWIDTH 547 0
DWIDTH 7 0
BBX 6 7 1 0
BITMAP
38
64
C0
E0
C0
D8
70
ENDCHAR

STARTCHAR afii10102
ENCODING 245
SWIDTH 490 0
DWIDTH 7 0
BBX 7 7 0 0
BITMAP
3C
66
70
38
1C
CC
78
ENDCHAR

STARTCHAR afii10103
ENCODING 246
SWIDTH 333 0
DWIDTH 5 0
BBX 5 10 0 0
BITMAP
18
18
00
60
B0
30
30
60
68
30
ENDCHAR

STARTCHAR afii10104
ENCODING 247
SWIDTH 333 0
DWIDTH 5 0
BBX 6 10 0 0
BITMAP
CC
CC
00
60
B0
30
30
60
68
30
ENDCHAR

STARTCHAR afii10105
ENCODING 248
SWIDTH 323 0
DWIDTH 5 0
BBX 7 13 -2 -3
BITMAP
06
06
00
18
2C
0C
0C
0C
18
18
18
B0
E0
ENDCHAR

STARTCHAR afii10106
ENCODING 249
SWIDTH 771 0
DWIDTH 11 0
BBX 10 7 0 0
BITMAP
0E00
1600
1600
2780
2CC0
4CC0
C780
ENDCHAR

STARTCHAR afii10107
ENCODING 250
SWIDTH 823 0
DWIDTH 12 0
BBX 10 7 1 0
BITMAP
EE00
6600
6600
7F80
CCC0
CCC0
C780
ENDCHAR

STARTCHAR afii10108
ENCODING 251
SWIDTH 625 0
DWIDTH 9 0
BBX 8 10 1 0
BITMAP
10
7E
30
60
6C
76
66
CC
CD
CE
ENDCHAR

STARTCHAR afii10109
ENCODING 252
SWIDTH 563 0
DWIDTH 8 0
BBX 8 10 0 0
BITMAP
06
0C
00
73
35
34
38
6C
6C
C6
ENDCHAR

STARTCHAR section
ENCODING 253
SWIDTH 594 0
DWIDTH 8 0
BBX 9 13 0 -3
BITMAP
0700
0D80
1880
3800
2C00
2400
3600
1200
1A00
0E00
8C00
D800
7000
ENDCHAR

STARTCHAR afii10110
ENCODING 254
SWIDTH 552 0
DWIDTH 8 0
BBX 9 13 -1 -3
BITMAP
0880
0700
0000
1D00
2D80
0C80
0D80
0D00
0700
0600
0C00
D800
6000
ENDCHAR

STARTCHAR afii10193
ENCODING 255
SWIDTH 635 0
DWIDTH 9 0
BBX 9 9 0 -2
BITMAP
7300
B300
3300
6600
6600
6E80
3300
6000
C000
ENDCHAR
ENDFONT
